<?xml version="1.0" encoding="UTF-8" standalone="no" ?>
<!DOCTYPE svg PUBLIC "-//W3C//DTD SVG 1.1//EN" "http://www.w3.org/Graphics/SVG/1.1/DTD/svg11.dtd">
<svg xmlns="http://www.w3.org/2000/svg" xmlns:xlink="http://www.w3.org/1999/xlink" version="1.1" width="100" height="100" viewBox="0 0 500 500" xml:space="preserve">
<defs>
</defs>
<g transform="matrix(0.49 0.49 -4.73 4.73 248.87 250.08)" id="L83buE4lRih3-PHjTFjMV"  >
<path style="stroke: rgb(3,22,136); stroke-width: 0; stroke-dasharray: none; stroke-linecap: butt; stroke-dashoffset: 0; stroke-linejoin: miter; stroke-miterlimit: 4; fill: rgb(195,193,199); fill-rule: nonzero; opacity: 1;" vector-effect="non-scaling-stroke"  transform=" translate(0, 0)" d="M -46.4939 -41.98088 C -46.4939 -44.473349999999996 -27.132189999999998 -46.4939 -3.2482999999999933 -46.4939 L 3.248310000000007 -46.4939 L 3.248310000000007 -46.4939 C 27.13219000000001 -46.4939 46.493910000000014 -44.473349999999996 46.493910000000014 -41.98088 L 46.493910000000014 41.98088 L 46.493910000000014 41.98088 C 46.493910000000014 44.473349999999996 27.132200000000015 46.4939 3.2483100000000107 46.4939 L -3.2482999999999898 46.4939 L -3.2482999999999898 46.4939 C -27.13217999999999 46.4939 -46.4939 44.473349999999996 -46.4939 41.98088 z" stroke-linecap="round" />
</g>
<g transform="matrix(-0.49 0.49 -4.72 -4.72 249.14 250.36)" id="Zscjs1NikGVaC2TOLkN1B"  >
<path style="stroke: rgb(3,22,136); stroke-width: 0; stroke-dasharray: none; stroke-linecap: butt; stroke-dashoffset: 0; stroke-linejoin: miter; stroke-miterlimit: 4; fill: rgb(195,193,199); fill-rule: nonzero; opacity: 1;" vector-effect="non-scaling-stroke"  transform=" translate(0, 0)" d="M -46.4939 -41.97526 C -46.4939 -44.470839999999995 -27.033939999999998 -46.4939 -3.0288699999999977 -46.4939 L 3.0288800000000027 -46.4939 L 3.0288800000000027 -46.4939 C 27.033950000000004 -46.4939 46.49391 -44.470839999999995 46.49391 -41.97526 L 46.49391 41.97526 L 46.49391 41.97526 C 46.49391 44.470839999999995 27.03395 46.4939 3.028880000000001 46.4939 L -3.0288699999999995 46.4939 L -3.0288699999999995 46.4939 C -27.03394 46.4939 -46.4939 44.470839999999995 -46.4939 41.97526 z" stroke-linecap="round" />
</g>
</svg>